# xmcd
#
# Track frame offsets:
# 150
# 16235
# 33097
# 48747
# 68760
# 85985
# 103410
# 121072
# 137572
# 159172
# 177047
# 190235
# 205097
# 226272
#
# Disc length: 3244 seconds
#
#
# Revision: 0
# Processed by: cddbd v1.5.1PL0 Copyright (c) Steve Scherf et al.
# Submitted via: FreeRIP 2.35 
#
DISCID=ae0caa0e
DTITLE=Gunther Gabriel - Dieselknechte
DYEAR=1900
DGENRE=Country
TTITLE0=Wir sind die Fahrer
TTITLE1=Schlaf nicht ein am Lenkrad, Junge
TTITLE2=Dankwart und Leila
TTITLE3=Wer ist der Mann hinter'm Mann Hinter'm Lenkrad
TTITLE4=Temporausch
TTITLE5=Mein Alter VW
TTITLE6=Dieselknecht
TTITLE7=Deutsches Laster, gutes Laster
TTITLE8=Wenn ich nur ein Trucker wär
TTITLE9=Mama, lass' Deinen Sohn nie Fernfahrer werden
TTITLE10=Ich fahre nie mehr blau
TTITLE11=Die gelben Engel vom ADAC
TTITLE12=Ich lieb' die Bullen
TTITLE13=Fahrer, Du bist Deutschlands bester Mann
EXTD=
EXTT0=
EXTT1=
EXTT2=
EXTT3=
EXTT4=
EXTT5=
EXTT6=
EXTT7=
EXTT8=
EXTT9=
EXTT10=
EXTT11=
EXTT12=
EXTT13=
PLAYORDER=
